<?xml version="1.0" encoding="utf-8"?>
<!-- Generator: Adobe Illustrator 19.0.0, SVG Export Plug-In . SVG Version: 6.00 Build 0)  -->
<svg version="1.1" id="Layer_1" xmlns="http://www.w3.org/2000/svg" xmlns:xlink="http://www.w3.org/1999/xlink" x="0px" y="0px"
	 viewBox="0 0 2000 2000" style="enable-background:new 0 0 2000 2000;" xml:space="preserve">
<g id="XMLID_20_">
	<g id="LINE_33_">
		<g>
			<path id="XMLID_19_" d="M729,1480.6c-0.5,0-1,0-1.6-0.1l-629.6-82.6c-9.6-1.2-16.4-10.1-15.2-19.7c1.3-9.6,8.9-17,19.7-15.2
				l629.6,82.6c9.6,1.2,16.4,10.1,15.2,19.7C745.9,1474.4,738,1481,729,1480.6z"/>
		</g>
	</g>
	<g id="LINE_34_">
		<g>
			<path id="XMLID_18_" d="M99.4,1398c-6.7-0.3-13-4.4-15.7-11.1l-14-35.2c-3.6-9,0.8-19.3,9.8-22.9c8.9-3.7,19.2,0.8,22.9,9.8
				l14,35.2c3.6,9-0.8,19.3-9.8,22.9C104.2,1397.8,101.8,1398.1,99.4,1398z"/>
		</g>
	</g>
	<g id="LINE_35_">
		<g>
			<path id="XMLID_17_" d="M85.4,1362.8c-9.4-0.4-16.9-8.1-16.9-17.6c0-9.7,7.9-17.6,17.6-17.6l648,0.4c9.9,2.2,17.7,8,17.6,17.6
				c0,9.7-7.9,17.6-17.6,17.6l-648-0.4C85.8,1362.9,85.6,1362.9,85.4,1362.8z"/>
		</g>
	</g>
	<g id="LINE_36_">
		<g>
			<polygon id="XMLID_16_" points="716.5,1345.1 765,24.7 800.1,26 751.6,1346.3 			"/>
		</g>
	</g>
	<g id="LINE_37_">
		<g>
			<path id="XMLID_15_" d="M781.9,42.9c-7.8-0.3-14.7-5.7-16.5-13.7c-2.1-9.5,3.8-18.9,13.3-21.1L813,0.4
				c9.9-1.8,18.9,3.8,21.1,13.3c2.1,9.5-3.8,18.9-13.3,21.1l-34.3,7.8C784.9,42.9,783.4,43,781.9,42.9z"/>
		</g>
	</g>
	<g id="LINE_38_">
		<g>
			<path id="XMLID_14_" d="M864.3,1363.4c-9.1-0.4-16.6-7.6-16.9-16.9L799.3,18.2c-0.4-9.7,7.2-17.8,16.9-18.2
				c11.3-0.3,17.8,7.2,18.2,16.9l48.1,1328.2c0.4,9.7-7.2,17.9-16.9,18.2C865.2,1363.4,864.7,1363.4,864.3,1363.4z"/>
		</g>
	</g>
	<g id="LINE_39_">
		<g>
			<path id="XMLID_13_" d="M1937.3,1399.3c-1.9-0.1-3.9-0.4-5.9-1.2c-9-3.6-13.4-13.9-9.8-22.9l14.1-35.2c3.7-9,13.9-13.3,22.9-9.8
				c9,3.6,13.4,13.9,9.8,22.9l-14.1,35.2C1951.5,1395.4,1944.5,1399.6,1937.3,1399.3z"/>
		</g>
	</g>
	<g id="LINE_40_">
		<g>
			<path id="XMLID_12_" d="M868.5,1480.7c-8.8-0.3-16.2-7.2-16.8-16.3c-0.8-9.7,6.5-18.1,16.2-18.9l1068.7-81.4
				c10-1.4,18.1,6.6,18.9,16.2c0.8,9.7-6.5,18.1-16.2,18.9l-1068.7,81.4C869.9,1480.7,869.2,1480.7,868.5,1480.7z"/>
		</g>
	</g>
	<g id="LINE_41_">
		<g>
			<path id="XMLID_11_" d="M887.4,2000c-9.1-0.4-16.6-7.6-16.9-16.9l-18.8-519.3c-0.4-9.7,7.2-17.8,16.9-18.2
				c10.7-1.4,17.9,7.2,18.2,16.9l18.8,519.3c0.4,9.7-7.2,17.8-16.9,18.2C888.2,2000,887.8,2000,887.4,2000z"/>
		</g>
	</g>
	<g id="ARC">
		<g>
			<path id="XMLID_10_" d="M887.4,2000c-0.5,0-1.1,0-1.6-0.1c-60.6-8-120.8-21.7-179.1-40.5c-9.2-3-14.3-12.9-11.3-22.2
				c3-9.2,12.8-14.2,22.2-11.3c56.3,18.2,114.4,31.3,172.8,39.1c9.6,1.3,16.5,10.1,15.2,19.7C904.3,1993.8,896.4,2000.3,887.4,2000z
				"/>
		</g>
	</g>
	<g id="LINE_42_">
		<g>
			<path id="XMLID_9_" d="M711.4,1960.2c-9.7-0.4-17.3-8.5-16.9-18.2l17.6-479.6c0.3-9.7,8.5-17.3,18.2-16.9l0.1,0
				c9.7,0.4,17.3,8.5,16.9,18.2l-17.6,479.6C729.3,1953,721.1,1960.6,711.4,1960.2L711.4,1960.2z"/>
		</g>
	</g>
	<g id="LINE_43_">
		<g>
			<path id="XMLID_8_" d="M864.3,1363.4c-9.4-0.4-16.9-8.1-16.9-17.6c0-9.7,7.9-17.6,17.6-17.6l1087,0.7
				c10.2,1.3,17.7,7.9,17.6,17.6c0,9.7-7.9,17.6-17.6,17.6l-1087-0.7C864.7,1363.4,864.5,1363.4,864.3,1363.4z"/>
		</g>
	</g>
	<g id="LINE_46_">
		<g>
			<path id="XMLID_7_" d="M440.7,1317.7c-4.9-0.2-9.8-1.9-13.9-5.3c-10-8.2-11.5-23-3.3-33l256.5-313.2c8.2-10,23-11.6,33-3.3
				c10,8.2,11.5,23,3.3,33l-256.5,313.2C454.9,1315,447.8,1318,440.7,1317.7z"/>
		</g>
	</g>
	<g id="LINE_48_">
		<g>
			<path id="XMLID_6_" d="M213.4,1317.6c-4.9-0.2-9.8-1.9-13.9-5.3c-10-8.2-11.5-23-3.3-33l494.5-604c8.2-9.9,22.9-11.7,33-3.3
				c10,8.2,11.5,23,3.3,33l-494.5,604C227.6,1314.9,220.5,1317.8,213.4,1317.6z"/>
		</g>
	</g>
	<g id="LINE_55_">
		<g>
			<path id="XMLID_5_" d="M52.9,1235.9c-4.9-0.2-9.8-1.9-13.9-5.3c-10-8.2-11.5-23-3.3-33l665.7-813c8.2-10,23-11.6,33-3.3
				c10,8.2,11.5,23,3.3,33L72,1227.3C67.1,1233.1,60,1236.1,52.9,1235.9z"/>
		</g>
	</g>
	<g id="LINE_57_">
		<g>
			<path id="XMLID_4_" d="M1156.7,1318.2c-6.5-0.3-12.8-3.2-17.3-8.6L882.9,996c-8.2-10.1-6.7-24.9,3.3-33.1
				c10-8.1,24.7-6.6,33.1,3.3l256.5,313.6c8.2,10.1,6.7,24.9-3.3,33.1C1167.8,1316.7,1162.2,1318.5,1156.7,1318.2z"/>
		</g>
	</g>
	<g id="LINE_63_">
		<g>
			<path id="XMLID_3_" d="M1384.1,1318.4c-6.5-0.3-12.8-3.2-17.3-8.6L872.4,705.2c-8.2-10.1-6.7-24.9,3.3-33.1
				c10.1-8.2,24.9-6.7,33.1,3.3l494.5,604.6c8.2,10.1,6.7,24.9-3.3,33.1C1395.3,1316.9,1389.7,1318.6,1384.1,1318.4z"/>
		</g>
	</g>
	<g id="LINE_65_">
		<g>
			<path id="XMLID_2_" d="M1611.6,1318.5c-6.5-0.3-12.8-3.2-17.3-8.6L861.9,414.3c-8.2-10.1-6.7-24.9,3.3-33.1
				c10-8.2,24.9-6.7,33.1,3.3l732.5,895.6c8.2,10.1,6.7,24.9-3.3,33.1C1622.8,1317,1617.1,1318.8,1611.6,1318.5z"/>
		</g>
	</g>
	<g id="LINE_71_">
		<g>
			<path id="XMLID_1_" d="M1839,1318.7c-6.5-0.3-12.8-3.2-17.3-8.6L851.3,123.5c-8.2-10.1-6.7-24.9,3.3-33.1
				c10-8.2,24.7-6.7,33.1,3.3l970.4,1186.6c8.2,10.1,6.7,24.9-3.3,33.1C1850.2,1317.2,1844.5,1318.9,1839,1318.7z"/>
		</g>
	</g>
</g>
</svg>
