<?xml version="1.0" standalone="no"?>
<!DOCTYPE svg PUBLIC "-//W3C//DTD SVG 20010904//EN"
 "http://www.w3.org/TR/2001/REC-SVG-20010904/DTD/svg10.dtd">
<svg version="1.0" xmlns="http://www.w3.org/2000/svg"
 width="1000.000000pt" height="1000.000000pt" viewBox="0 0 1000.000000 1000.000000"
 preserveAspectRatio="xMidYMid meet">
<metadata>
Created by potrace 1.11, written by Peter Selinger 2001-2013
</metadata>
<g transform="translate(0.000000,1000.000000) scale(0.100000,-0.100000)"
fill="#000000" stroke="none">
<path d="M4191 7949 c-1 -78 -2 -144 -3 -148 -2 -22 4 -32 19 -29 15 3 17 15
14 98 -4 89 -7 161 -10 203 0 9 -5 17 -10 17 -5 0 -10 -64 -10 -141z"/>
<path d="M4200 7750 c-9 -6 -14 -35 -16 -96 -3 -97 3 -87 -102 -172 -23 -19
-52 -44 -65 -55 -13 -12 -47 -42 -77 -67 -30 -25 -104 -88 -165 -140 -61 -52
-133 -113 -159 -135 -27 -22 -58 -49 -71 -60 -12 -11 -46 -40 -75 -64 -29 -25
-67 -57 -84 -72 -17 -15 -51 -44 -77 -65 -25 -22 -70 -60 -100 -85 -247 -212
-565 -482 -609 -519 -29 -25 -58 -50 -64 -55 -11 -11 -185 -159 -272 -232 -27
-23 -59 -50 -70 -60 -12 -10 -90 -76 -175 -148 -84 -71 -173 -148 -198 -170
-26 -22 -59 -50 -75 -63 -16 -12 -27 -25 -24 -28 5 -4 109 80 278 226 30 26
109 94 175 150 174 148 177 151 215 184 20 17 60 51 90 76 29 25 58 50 64 56
6 5 56 48 111 94 55 46 105 89 111 94 6 6 32 29 58 51 27 22 58 48 70 58 11
10 43 37 70 60 27 23 54 47 60 52 6 6 56 48 111 95 55 47 102 87 105 90 3 3
48 41 100 85 52 44 97 82 100 85 3 3 34 30 70 60 36 30 67 57 70 60 3 3 32 28
65 55 33 28 62 52 65 55 3 3 37 32 75 65 39 33 75 64 81 70 52 46 297 251 303
253 4 1 7 -13 8 -32 1 -38 -5 -44 -157 -175 -41 -36 -79 -69 -85 -75 -5 -6
-55 -50 -110 -97 -55 -47 -114 -99 -131 -115 -18 -16 -58 -51 -90 -79 -32 -27
-65 -57 -74 -65 -9 -8 -47 -42 -85 -75 -38 -33 -77 -67 -85 -75 -14 -13 -51
-45 -164 -143 -48 -42 -151 -133 -166 -147 -9 -8 -62 -55 -119 -105 -57 -49
-113 -99 -126 -110 -12 -11 -51 -45 -85 -75 -35 -30 -68 -60 -74 -65 -6 -6
-85 -75 -176 -155 -91 -80 -167 -147 -170 -150 -3 -3 -79 -70 -170 -150 -176
-154 -200 -176 -200 -185 0 -7 42 26 105 84 22 20 94 83 160 141 66 57 122
107 125 110 3 3 23 20 45 39 22 19 74 64 115 101 41 37 120 107 176 156 55 49
133 118 174 154 80 71 87 77 174 153 33 29 103 90 156 137 52 47 126 112 164
145 37 33 78 69 90 80 13 11 54 47 92 80 37 33 93 83 124 110 31 28 86 77 124
110 38 33 78 69 90 80 11 11 37 33 56 49 19 16 58 49 86 75 28 25 77 69 109
96 32 28 66 58 74 68 18 20 31 22 31 4 0 -7 -33 -41 -72 -76 -40 -35 -100 -89
-134 -120 -56 -51 -176 -160 -228 -204 -12 -10 -54 -49 -95 -85 -41 -37 -82
-74 -91 -82 -42 -37 -175 -157 -189 -170 -9 -9 -54 -49 -101 -90 -47 -41 -107
-96 -135 -121 -27 -26 -93 -84 -145 -130 -52 -46 -100 -88 -106 -93 -14 -14
-155 -141 -185 -167 -13 -11 -58 -51 -99 -88 -99 -89 -276 -248 -380 -341 -46
-41 -106 -95 -132 -119 -27 -25 -57 -51 -68 -58 -11 -8 -20 -19 -20 -24 0 -13
30 10 132 103 45 40 89 80 98 88 44 39 158 141 185 166 17 16 68 63 115 104
46 41 88 80 94 85 6 6 52 46 101 90 50 43 117 104 150 135 33 30 96 87 139
125 44 39 84 75 90 80 6 6 54 48 106 95 52 47 100 90 106 95 6 6 46 42 89 80
43 39 90 81 105 95 15 14 60 54 100 90 41 36 83 74 94 85 12 11 39 35 61 54
22 19 65 57 96 85 30 28 93 85 138 126 46 41 101 92 124 113 23 20 45 37 49
37 14 0 9 -19 -10 -37 -29 -28 -194 -179 -227 -207 -16 -14 -27 -27 -24 -30 4
-4 24 13 182 161 38 34 72 63 77 63 4 0 6 -16 5 -37 -3 -30 -16 -48 -77 -105
-145 -137 -394 -375 -507 -483 -63 -60 -126 -121 -141 -135 -14 -14 -98 -93
-186 -177 -87 -83 -184 -175 -214 -203 -134 -127 -553 -528 -700 -669 -47 -46
-80 -81 -73 -79 10 3 148 131 344 319 67 65 416 399 480 460 60 57 375 358
449 429 48 46 170 162 451 430 20 19 66 64 101 99 39 37 68 59 72 52 4 -6 -35
-52 -88 -103 -90 -88 -562 -548 -745 -727 -47 -46 -220 -214 -384 -375 -165
-160 -365 -355 -445 -433 -80 -78 -144 -144 -142 -147 5 -5 123 108 506 483
1286 1260 1288 1262 1292 1246 2 -8 -72 -89 -165 -180 -92 -91 -164 -165 -159
-165 5 0 55 46 112 103 184 184 214 212 214 197 0 -8 -66 -82 -146 -165 -80
-82 -280 -287 -443 -455 -164 -168 -324 -333 -357 -367 -32 -33 -196 -202
-364 -373 -168 -172 -306 -317 -308 -324 -5 -15 506 503 937 953 30 31 174
180 321 331 147 151 285 294 307 318 22 23 43 42 47 42 20 0 -4 -35 -72 -106
-42 -44 -142 -149 -222 -234 -80 -84 -165 -175 -190 -201 -124 -130 -335 -352
-396 -418 -38 -41 -87 -93 -109 -116 -61 -64 -327 -345 -350 -370 -11 -12 -58
-61 -104 -108 -47 -48 -82 -89 -79 -92 6 -7 38 24 152 146 38 41 129 137 202
214 73 77 144 154 160 170 29 32 265 284 324 346 19 20 85 89 145 154 61 64
135 143 165 175 67 70 267 284 332 353 l47 50 -2 -44 c-1 -24 -4 -46 -7 -49
-16 -16 -113 -125 -160 -179 -30 -35 -64 -73 -75 -85 -11 -13 -45 -51 -76 -87
-31 -35 -67 -75 -80 -90 -13 -14 -46 -51 -73 -82 -27 -31 -63 -71 -80 -90 -17
-18 -46 -51 -65 -73 -38 -43 -113 -129 -242 -273 -47 -53 -94 -106 -105 -119
-10 -13 -28 -34 -39 -46 -11 -12 -51 -57 -90 -101 -38 -43 -74 -83 -80 -89 -5
-6 -39 -45 -75 -86 -36 -41 -73 -83 -83 -93 -10 -10 -16 -22 -12 -25 4 -4 16
4 27 18 11 14 34 41 51 60 18 19 64 71 102 115 39 44 87 98 107 120 20 22 46
51 58 65 78 91 131 151 170 195 25 28 75 84 110 125 36 41 79 90 95 109 17 19
48 56 71 81 22 25 54 60 70 79 16 18 40 46 54 61 14 15 48 54 77 86 55 64 62
72 138 158 28 32 68 79 90 104 22 25 59 66 82 90 l42 45 -3 -41 c-2 -34 -13
-55 -57 -109 -29 -38 -56 -70 -59 -73 -3 -3 -23 -27 -45 -55 -61 -76 -69 -86
-80 -99 -6 -6 -80 -96 -165 -201 -85 -104 -163 -199 -172 -210 -9 -11 -41 -50
-70 -86 -97 -120 -321 -394 -327 -399 -4 -3 -31 -36 -61 -75 -54 -68 -67 -85
-109 -134 -12 -13 -18 -27 -15 -30 3 -3 15 5 26 19 11 14 35 43 53 65 32 39
268 330 429 530 45 55 89 109 98 120 24 29 215 265 241 298 12 15 29 36 38 45
9 9 62 75 119 146 56 72 108 136 116 143 7 8 18 22 23 31 5 9 13 14 17 10 9
-10 -25 -60 -132 -195 -49 -61 -111 -141 -139 -178 -27 -36 -55 -71 -60 -78
-6 -7 -44 -55 -85 -107 -41 -52 -77 -97 -80 -100 -3 -3 -25 -32 -50 -65 -24
-33 -72 -94 -105 -136 -33 -42 -73 -93 -90 -115 -16 -21 -48 -61 -70 -89 -22
-27 -53 -68 -70 -90 -16 -22 -35 -47 -42 -55 -6 -8 -40 -51 -74 -95 -34 -44
-67 -83 -73 -87 -6 -4 -7 -11 -2 -15 9 -9 20 3 148 172 51 66 153 199 228 295
75 96 158 204 185 240 28 36 57 74 67 85 21 26 137 175 163 211 22 30 134 175
166 214 11 14 39 51 62 82 40 54 66 75 53 43 -3 -8 -9 -22 -13 -32 -4 -11 -3
-14 5 -9 22 13 -4 -36 -64 -124 -32 -47 -69 -96 -81 -110 -13 -14 -23 -30 -23
-37 0 -6 -4 -13 -8 -15 -5 -1 -28 -32 -52 -68 -24 -36 -149 -216 -279 -400
-422 -602 -386 -550 -373 -550 8 0 171 232 476 675 38 55 87 127 110 159 102
147 172 248 227 329 33 48 64 85 70 81 6 -3 6 -11 2 -17 -5 -7 -8 -59 -7 -117
1 -58 -3 -115 -7 -127 -6 -15 -5 -23 2 -23 7 0 9 -10 4 -27 -4 -16 -7 -35 -7
-43 4 -58 -3 -474 -12 -786 l-4 -100 76 -2 c101 -3 113 1 107 41 -2 18 -7 118
-10 222 -4 105 -8 224 -10 265 -2 41 -7 152 -10 247 -3 95 -8 182 -10 194 -3
15 0 19 11 15 13 -5 13 -3 -1 16 -17 25 -19 38 -6 38 4 0 24 -24 44 -52 41
-62 53 -79 401 -573 148 -208 270 -385 273 -391 4 -12 33 -27 39 -21 5 5 -116
177 -340 482 -209 285 -426 593 -426 604 0 9 3 11 8 6 10 -12 92 -114 109
-135 6 -8 72 -89 145 -180 137 -170 374 -466 409 -510 162 -205 216 -269 227
-270 19 0 15 8 -35 68 -27 31 -55 65 -65 77 -9 11 -43 52 -75 91 -32 38 -71
87 -88 108 -16 22 -35 44 -40 50 -6 6 -42 50 -80 97 -64 78 -309 377 -348 424
-9 11 -50 61 -91 110 -72 86 -88 115 -66 115 6 0 10 -3 10 -7 0 -10 77 -93 85
-93 4 0 -18 28 -49 63 -31 34 -56 70 -56 79 0 9 63 -48 148 -134 81 -83 237
-244 348 -357 221 -227 318 -326 532 -546 79 -80 148 -145 155 -142 7 2 -166
183 -385 403 -771 776 -827 834 -801 834 4 0 42 -33 84 -73 136 -129 383 -364
420 -398 37 -35 283 -266 349 -329 68 -64 372 -354 414 -395 23 -22 51 -41 61
-43 14 -2 6 9 -25 38 -25 23 -98 92 -164 154 -65 61 -137 128 -160 149 -22 22
-95 89 -161 151 -66 62 -133 125 -150 140 -16 15 -88 83 -160 150 -71 68 -142
134 -156 147 -51 47 -252 235 -306 286 -31 30 -51 57 -47 64 3 6 9 7 13 2 3
-4 37 -35 76 -68 38 -33 76 -67 85 -75 9 -8 49 -44 90 -80 40 -36 99 -87 130
-115 31 -27 89 -79 130 -115 41 -36 99 -87 130 -115 87 -78 211 -188 234 -208
12 -10 35 -31 51 -45 17 -15 68 -61 115 -102 47 -41 87 -77 90 -80 3 -3 64
-57 135 -119 72 -63 142 -125 157 -139 14 -13 32 -22 38 -20 6 2 -48 55 -121
118 -73 63 -142 124 -153 135 -12 11 -53 47 -91 80 -39 33 -72 62 -75 65 -3 3
-39 34 -80 70 -41 36 -116 101 -165 145 -102 90 -204 180 -285 250 -30 27 -84
74 -120 105 -36 32 -108 95 -160 140 -189 165 -227 200 -227 214 0 18 28 0
103 -67 27 -24 103 -88 169 -143 66 -54 131 -108 145 -120 14 -12 86 -72 160
-134 74 -61 157 -131 184 -153 108 -93 102 -88 211 -177 44 -35 82 -67 85 -70
20 -23 552 -460 560 -460 20 0 8 16 -37 50 -26 19 -68 52 -93 74 -53 44 -38
32 -255 211 -94 76 -172 142 -175 145 -3 3 -68 57 -145 120 -77 63 -142 117
-145 120 -3 3 -30 25 -60 50 -30 25 -57 47 -60 50 -3 3 -52 44 -110 90 -58 47
-110 90 -116 95 -31 28 -74 64 -119 100 -27 22 -57 47 -66 55 -8 8 -66 56
-127 105 -63 51 -111 98 -111 108 -1 17 18 3 189 -133 19 -15 98 -78 175 -139
77 -61 149 -119 161 -128 11 -10 67 -54 124 -98 56 -44 126 -99 154 -121 28
-23 132 -105 231 -184 99 -78 196 -155 215 -170 359 -286 504 -400 511 -400
17 0 9 18 -15 34 -22 14 -264 203 -641 500 -71 56 -258 203 -415 326 -157 123
-337 265 -400 315 -63 50 -135 106 -160 124 -25 19 -49 39 -55 46 -5 6 -24 21
-41 33 -26 18 -32 29 -32 61 l-1 40 122 -88 c67 -48 190 -137 272 -197 83 -60
188 -136 235 -169 47 -33 92 -65 100 -72 20 -16 396 -291 485 -353 160 -114
653 -471 768 -557 32 -24 63 -41 68 -37 6 3 -32 35 -83 71 -51 36 -203 145
-338 243 -464 335 -995 717 -1120 806 -69 49 -126 92 -128 96 -2 5 -8 8 -12 8
-5 0 -44 26 -87 58 -43 33 -124 91 -180 131 -90 64 -128 101 -104 101 7 0 215
-141 356 -242 22 -16 69 -49 105 -73 36 -24 103 -71 150 -104 47 -33 173 -121
280 -195 227 -157 617 -430 642 -448 10 -7 76 -53 148 -103 72 -49 206 -143
298 -208 171 -122 220 -152 229 -144 3 3 -42 37 -99 76 -56 38 -139 95 -183
126 -44 31 -98 68 -119 82 -22 14 -44 29 -50 34 -6 5 -68 49 -138 97 -70 48
-252 174 -405 280 -759 528 -1036 719 -1120 776 -84 55 -111 81 -99 93 4 4
176 -108 501 -328 94 -64 350 -236 570 -384 220 -148 533 -358 695 -468 162
-109 359 -241 437 -294 78 -52 146 -94 153 -91 6 2 -20 23 -57 48 -37 24 -69
48 -71 52 -2 4 -7 8 -12 8 -8 0 -137 86 -754 501 -143 96 -274 183 -292 194
-67 41 -1150 768 -1163 780 -7 7 -12 18 -10 24 2 6 33 -9 71 -34 37 -25 69
-45 71 -45 2 0 94 -60 205 -132 110 -73 286 -188 389 -255 347 -226 477 -311
623 -406 188 -123 419 -273 545 -355 55 -36 156 -102 225 -147 351 -230 368
-240 377 -232 3 3 -15 18 -38 33 -53 33 -717 462 -850 550 -85 55 -758 492
-944 612 -38 25 -115 75 -170 110 -187 122 -350 228 -427 277 -74 48 -77 51
-76 87 0 43 4 45 30 21 10 -9 21 -13 24 -10 4 4 -7 14 -24 24 -17 10 -33 26
-36 35 -5 23 -6 23 54 -12 27 -16 50 -26 50 -22 0 5 -20 18 -44 30 -49 25 -72
47 -57 56 8 5 227 -118 486 -274 44 -26 98 -58 120 -70 22 -13 52 -30 67 -39
14 -9 73 -43 129 -76 56 -33 119 -69 138 -81 217 -128 966 -567 1006 -589 22
-13 126 -74 230 -135 105 -62 206 -121 225 -132 30 -18 139 -81 192 -113 16
-9 141 -83 213 -125 17 -9 80 -47 141 -83 61 -35 122 -68 135 -72 33 -10 15 7
-41 37 -25 14 -70 40 -100 58 -30 18 -71 42 -90 53 -56 31 -436 254 -540 315
-52 32 -99 59 -105 61 -5 2 -27 15 -48 28 -21 13 -55 33 -75 45 -46 25 -876
510 -1307 763 -176 103 -342 200 -370 216 -225 126 -409 239 -411 253 -3 20 5
20 31 2 11 -7 40 -24 65 -38 80 -45 119 -67 275 -158 85 -50 156 -90 159 -90
2 0 33 -17 67 -38 35 -22 393 -227 794 -457 402 -230 930 -533 1175 -673 743
-426 680 -391 680 -373 0 5 -8 11 -17 14 -10 3 -40 19 -68 35 -57 33 -36 21
-390 224 -148 85 -290 166 -315 180 -25 14 -88 50 -140 80 -52 30 -115 66
-140 80 -25 14 -88 50 -140 80 -52 30 -115 66 -140 80 -25 14 -157 90 -295
168 -137 79 -266 152 -285 163 -19 11 -80 45 -135 77 -55 32 -116 66 -135 77
-19 11 -91 52 -159 91 -68 40 -125 72 -126 72 -2 0 -48 27 -103 59 -55 32
-124 72 -154 88 -29 17 -114 65 -188 108 -214 124 -252 145 -258 145 -4 0 -20
11 -37 24 -43 34 -23 45 30 16 52 -29 275 -155 655 -368 151 -85 295 -166 320
-180 25 -14 146 -82 270 -152 124 -70 248 -139 275 -154 121 -68 722 -405
1105 -621 85 -48 180 -101 210 -118 30 -16 71 -39 90 -50 19 -11 71 -40 115
-65 44 -24 100 -56 125 -70 25 -14 59 -32 75 -40 17 -8 37 -20 45 -27 8 -7 26
-16 40 -20 22 -7 23 -6 11 9 -7 9 -17 16 -21 16 -4 0 -92 48 -196 106 -104 59
-218 122 -254 142 -36 19 -86 48 -113 63 -26 16 -49 29 -52 29 -2 0 -27 13
-54 29 -48 29 -235 134 -731 411 -135 75 -436 244 -670 375 -234 131 -443 248
-465 260 -22 12 -80 45 -129 74 -49 28 -90 51 -92 51 -2 0 -45 24 -96 53 -51
30 -124 71 -163 92 -38 21 -99 54 -135 74 -36 20 -98 54 -137 76 -66 36 -91
60 -79 73 3 2 25 -7 48 -21 24 -14 70 -40 103 -57 138 -75 186 -101 298 -164
65 -36 119 -66 121 -66 2 0 41 -22 87 -48 46 -27 125 -70 174 -97 50 -26 106
-57 125 -68 59 -33 411 -228 480 -265 119 -65 735 -404 765 -422 17 -9 66 -37
110 -60 44 -24 139 -76 210 -115 72 -40 162 -89 200 -110 39 -21 101 -55 138
-77 38 -21 70 -38 72 -38 1 0 62 -34 134 -75 73 -41 134 -75 137 -75 2 0 21
-10 42 -23 20 -13 71 -42 112 -64 41 -22 97 -53 123 -67 27 -15 53 -26 58 -24
9 3 -52 40 -196 118 -33 18 -73 40 -90 50 -16 9 -55 31 -85 47 -30 16 -125 68
-210 115 -85 47 -180 99 -210 115 -30 17 -122 67 -205 113 -82 45 -175 96
-205 112 -30 17 -77 43 -105 58 -47 26 -494 272 -600 330 -27 15 -117 65 -200
110 -82 46 -172 95 -200 110 -27 15 -142 78 -255 140 -113 62 -230 126 -260
142 -55 30 -397 218 -540 297 -41 23 -99 54 -127 68 -35 18 -53 33 -53 45 0
16 15 11 98 -33 53 -28 102 -55 107 -59 6 -4 60 -33 120 -65 61 -31 115 -60
120 -65 6 -4 64 -36 130 -70 66 -34 125 -66 130 -70 6 -4 55 -31 110 -60 55
-29 105 -56 110 -60 9 -6 85 -47 270 -145 33 -18 101 -54 150 -82 85 -47 132
-73 323 -175 42 -22 111 -60 152 -83 41 -23 125 -68 185 -100 61 -32 211 -113
335 -180 124 -67 259 -140 300 -162 89 -48 381 -207 460 -250 30 -16 100 -54
155 -83 55 -29 114 -61 130 -70 17 -10 60 -34 98 -54 37 -20 97 -52 133 -72
36 -19 68 -33 72 -30 7 8 10 6 -98 63 -52 28 -151 81 -220 118 -128 69 -354
191 -470 253 -36 19 -108 58 -160 87 -52 29 -131 71 -175 95 -90 48 -141 75
-335 180 -74 40 -163 88 -197 106 -156 84 -201 108 -248 134 -27 15 -86 47
-130 70 -44 24 -100 54 -125 68 -25 13 -83 45 -130 69 -47 25 -98 53 -115 63
-16 10 -65 36 -109 59 -43 23 -131 70 -195 105 -64 35 -156 84 -206 111 -49
26 -103 55 -120 65 -16 9 -75 41 -130 70 -55 29 -118 63 -140 75 -22 12 -69
38 -105 57 -36 19 -81 44 -100 55 -20 11 -68 37 -107 57 -67 35 -90 56 -76 70
4 3 18 -1 31 -10 25 -16 68 -40 237 -129 44 -23 100 -53 125 -67 25 -14 95
-51 155 -83 61 -32 142 -74 180 -95 39 -20 104 -55 145 -77 41 -22 129 -69
195 -103 66 -35 125 -66 130 -70 6 -4 73 -40 150 -80 77 -40 154 -80 170 -90
17 -9 84 -45 150 -80 66 -34 143 -75 170 -90 28 -15 129 -69 225 -120 96 -51
281 -149 410 -218 129 -68 278 -147 330 -175 52 -27 118 -62 145 -77 28 -15
95 -51 150 -80 55 -29 123 -65 150 -80 28 -15 95 -51 150 -80 55 -29 123 -65
150 -80 175 -95 287 -151 296 -148 6 2 -22 21 -63 42 -40 22 -135 72 -211 113
-75 40 -139 73 -141 73 -2 0 -39 19 -82 43 -44 24 -133 72 -199 107 -66 34
-142 75 -170 90 -27 15 -93 50 -145 77 -52 28 -174 92 -270 143 -265 140 -340
180 -395 210 -27 15 -99 54 -160 85 -60 32 -137 72 -170 90 -33 18 -105 56
-160 85 -55 29 -131 70 -170 90 -38 21 -119 64 -180 96 -60 32 -135 72 -167
89 -31 16 -103 54 -160 84 -56 30 -125 66 -153 81 -113 61 -233 125 -480 255
-332 175 -362 192 -369 210 -3 8 -3 15 0 15 6 0 301 -152 389 -200 28 -15 127
-67 220 -115 94 -48 175 -91 180 -95 6 -4 105 -56 220 -115 116 -59 215 -111
220 -115 6 -4 100 -53 210 -110 110 -56 218 -113 240 -125 22 -12 103 -55 180
-95 77 -40 181 -94 230 -120 118 -62 496 -260 660 -345 72 -37 157 -82 190
-100 33 -18 121 -64 195 -102 74 -39 221 -115 325 -170 408 -215 526 -274 536
-271 5 2 -59 39 -143 82 -84 43 -184 96 -223 116 -38 21 -124 66 -190 100 -66
34 -171 89 -232 121 -62 32 -164 85 -225 118 -62 32 -156 81 -208 108 -52 28
-153 81 -225 118 -71 37 -175 91 -230 120 -55 29 -154 81 -220 115 -66 34
-169 88 -230 120 -257 134 -357 187 -485 252 -74 39 -157 83 -185 98 -27 15
-122 65 -210 110 -88 46 -196 102 -240 125 -44 23 -152 80 -240 125 -88 46
-174 91 -191 101 -17 9 -90 47 -161 83 -71 36 -137 72 -146 79 -13 9 -17 32
-19 105 -1 51 -5 95 -8 97 -3 2 -12 0 -20 -5z"/>
<path d="M4150 7489 c0 -5 5 -7 10 -4 6 3 10 8 10 11 0 2 -4 4 -10 4 -5 0 -10
-5 -10 -11z"/>
<path d="M4114 7462 c-18 -16 -110 -97 -248 -216 -33 -28 -69 -60 -82 -71 -12
-11 -33 -29 -46 -40 -131 -111 -455 -391 -463 -399 -6 -6 -39 -36 -75 -66 -36
-30 -67 -57 -70 -61 -3 -3 -36 -32 -75 -64 -38 -32 -77 -65 -86 -74 -9 -9 -25
-23 -35 -31 -11 -9 -71 -61 -134 -115 -63 -55 -128 -111 -144 -125 -16 -14
-39 -34 -52 -45 -12 -11 -46 -40 -75 -65 -29 -25 -94 -80 -144 -124 -49 -43
-103 -90 -120 -105 -16 -14 -97 -84 -180 -155 -230 -198 -265 -230 -265 -239
0 -5 15 4 34 20 32 27 371 321 431 374 40 35 213 186 245 213 54 46 245 211
250 216 3 3 55 48 115 100 61 52 112 97 115 100 3 3 36 32 75 65 82 70 100 86
220 191 50 43 92 81 95 84 3 3 34 30 70 60 58 50 114 98 144 125 19 18 286
248 340 294 28 24 77 66 110 95 32 28 63 54 69 58 7 4 9 9 6 12 -3 3 -14 -2
-25 -12z"/>
<path d="M4099 7257 c-62 -59 -266 -247 -313 -291 -17 -15 -87 -81 -156 -146
-69 -64 -138 -129 -155 -143 -16 -14 -28 -28 -25 -31 3 -3 33 21 66 52 101 94
307 288 345 323 157 147 260 242 279 259 13 11 21 22 19 24 -2 3 -29 -19 -60
-47z"/>
<path d="M4360 7156 c0 -3 233 -145 399 -242 20 -12 155 -93 301 -181 146 -88
348 -209 450 -270 102 -61 222 -134 268 -162 46 -28 85 -51 87 -51 2 0 47 -27
100 -60 53 -33 99 -60 102 -60 3 0 17 -8 31 -19 15 -10 43 -28 62 -38 67 -38
945 -565 970 -583 29 -20 81 -38 65 -22 -8 8 -449 274 -510 308 -17 9 -850
507 -1313 785 -68 41 -137 82 -155 93 -73 42 -607 362 -664 397 -34 22 -67 39
-73 39 -5 0 -10 5 -10 10 0 6 -5 10 -10 10 -6 0 -28 11 -50 25 -38 24 -50 29
-50 21z"/>
<path d="M4335 7125 c11 -9 76 -50 145 -92 69 -42 208 -128 310 -191 102 -63
226 -139 275 -170 50 -30 106 -65 125 -77 36 -23 701 -432 732 -450 9 -5 82
-50 163 -100 200 -123 276 -170 386 -238 52 -32 101 -62 109 -67 8 -6 96 -59
195 -120 99 -61 187 -115 195 -120 38 -25 72 -41 80 -38 5 2 -90 64 -212 138
-121 74 -280 171 -352 216 -125 77 -654 401 -1271 779 -159 98 -423 259 -585
359 -282 174 -339 206 -295 171z"/>
<path d="M4265 7122 c18 -18 279 -181 284 -176 6 5 17 -3 -138 95 -135 84
-165 101 -146 81z"/>
<path d="M3845 7073 c-28 -25 -95 -86 -149 -137 -54 -50 -107 -98 -116 -106
-31 -27 -183 -165 -205 -185 -11 -11 -70 -65 -130 -120 -60 -55 -116 -107
-125 -115 -26 -24 -191 -173 -213 -192 -27 -24 -198 -180 -272 -249 -33 -30
-82 -75 -109 -100 -26 -24 -60 -55 -75 -69 -15 -14 -74 -68 -131 -120 -133
-120 -239 -224 -220 -214 12 6 159 137 246 219 18 17 140 130 232 214 15 13
54 49 88 80 33 31 105 97 159 146 98 89 139 126 325 297 52 48 111 102 131
120 37 33 172 157 233 213 18 17 74 68 125 115 92 84 110 100 210 194 29 26
51 50 49 51 -2 2 -26 -17 -53 -42z"/>
<path d="M4039 6898 c-112 -122 -276 -301 -314 -344 -11 -12 -63 -68 -115
-125 -52 -56 -104 -113 -115 -125 -11 -12 -56 -61 -100 -109 -44 -49 -91 -100
-105 -115 -23 -25 -179 -195 -225 -246 -11 -12 -60 -66 -110 -119 -49 -54 -98
-107 -108 -119 -10 -11 -41 -45 -69 -74 -28 -29 -48 -55 -45 -58 3 -3 32 23
64 57 104 111 114 123 183 199 80 88 87 96 205 225 50 54 98 107 108 119 16
18 132 144 216 235 13 14 51 57 85 95 33 37 72 80 86 95 14 15 63 69 110 120
47 52 96 106 110 121 14 14 57 62 95 105 39 43 86 95 106 116 47 50 63 69 56
69 -3 0 -56 -55 -118 -122z"/>
<path d="M4560 6936 c0 -2 21 -17 48 -34 26 -16 146 -93 267 -169 121 -77 344
-218 495 -313 151 -96 430 -272 620 -392 190 -119 350 -222 357 -228 7 -5 14
-10 16 -10 3 0 117 -71 254 -159 138 -87 261 -162 274 -166 40 -12 17 3 -281
190 -157 98 -314 197 -350 220 -36 23 -173 110 -305 192 -132 83 -289 183
-350 221 -60 39 -141 90 -179 114 -39 24 -84 52 -102 63 -89 55 -225 141 -276
173 -32 20 -101 65 -155 98 -54 34 -149 93 -211 133 -108 68 -122 76 -122 67z"/>
<path d="M4097 6858 c-30 -35 -87 -101 -127 -148 -40 -47 -82 -96 -94 -110
-11 -14 -62 -72 -111 -130 -50 -58 -94 -110 -100 -116 -5 -6 -19 -22 -30 -35
-11 -13 -83 -98 -160 -189 -77 -91 -147 -174 -157 -185 -26 -32 -157 -185
-208 -245 -160 -185 -200 -234 -195 -238 7 -8 -17 -35 422 484 218 258 465
550 507 598 28 33 60 71 71 85 11 14 34 42 52 61 17 19 42 49 55 65 12 17 32
39 43 51 11 12 31 34 44 50 13 16 31 37 39 47 8 9 13 17 10 17 -3 0 -31 -28
-61 -62z"/>
<path d="M4276 6882 c5 -5 144 -110 309 -234 165 -123 325 -243 355 -267 30
-23 151 -114 269 -203 118 -88 221 -167 230 -174 9 -7 68 -52 131 -100 63 -47
222 -167 353 -266 131 -98 243 -178 248 -176 8 3 -503 394 -702 538 -36 26
-582 436 -959 720 -137 103 -230 170 -236 170 -4 0 -4 -4 2 -8z"/>
<path d="M3750 6765 c-41 -41 -70 -75 -65 -75 6 0 44 34 85 75 41 41 70 75 65
74 -6 0 -44 -34 -85 -74z"/>
<path d="M4121 6737 c-14 -22 -100 -139 -316 -429 -60 -81 -148 -200 -195
-264 -47 -64 -159 -216 -250 -338 -187 -250 -185 -246 -171 -246 5 0 74 88
153 196 222 304 237 324 333 456 49 67 94 128 100 135 5 6 42 55 80 109 39 53
104 142 145 198 97 129 143 196 138 201 -2 2 -10 -6 -17 -18z"/>
<path d="M3055 6070 c-335 -336 -605 -610 -599 -610 5 0 282 272 615 606 705
706 614 614 603 614 -5 0 -283 -275 -619 -610z"/>
<path d="M3979 6410 c-90 -138 -206 -314 -257 -393 -51 -78 -150 -230 -221
-337 -150 -228 -145 -220 -133 -220 4 0 50 64 101 143 159 244 382 590 476
737 50 78 96 148 103 155 6 7 12 16 12 20 0 3 17 32 38 63 47 70 54 82 49 82
-3 0 -78 -113 -168 -250z"/>
<path d="M3369 6577 c-36 -34 -95 -89 -130 -121 -35 -33 -120 -112 -189 -176
-69 -65 -139 -130 -156 -146 -17 -16 -78 -73 -135 -126 -57 -53 -127 -118
-155 -145 -28 -26 -80 -75 -115 -107 -35 -32 -96 -89 -135 -125 -38 -36 -94
-88 -123 -115 -29 -26 -50 -50 -47 -53 4 -5 115 94 272 242 158 150 299 282
313 295 10 8 80 74 157 145 76 72 170 159 208 195 38 36 106 99 150 141 45 42
99 93 121 112 22 20 37 38 35 41 -3 3 -35 -23 -71 -57z"/>
<path d="M4137 6603 c-4 -3 -7 -11 -7 -17 0 -6 5 -5 12 2 6 6 9 14 7 17 -3 3
-9 2 -12 -2z"/>
<path d="M4107 6548 c-8 -13 -52 -86 -99 -163 -286 -470 -537 -884 -547 -903
-6 -12 -8 -22 -3 -22 5 0 91 138 192 308 100 169 193 323 205 342 61 94 276
460 270 460 -3 0 -11 -10 -18 -22z"/>
<path d="M3905 6123 c-131 -235 -247 -444 -258 -463 -58 -101 -107 -200 -100
-200 5 0 28 35 51 78 23 42 58 106 78 142 20 36 92 169 161 295 184 336 191
350 255 464 32 58 56 106 54 108 -2 2 -110 -189 -241 -424z"/>
<path d="M4111 6430 c-18 -33 -29 -60 -24 -60 8 0 64 112 59 118 -2 1 -17 -25
-35 -58z"/>
<path d="M4411 6453 c18 -20 39 -42 44 -48 19 -22 150 -169 165 -185 8 -9 33
-36 54 -60 22 -25 73 -82 114 -127 41 -46 83 -93 94 -105 52 -61 223 -252 274
-308 23 -25 61 -68 85 -97 42 -48 67 -68 76 -59 4 4 -34 48 -161 186 -39 41
-81 88 -95 104 -15 16 -39 44 -56 61 -16 18 -46 50 -65 71 -19 22 -102 113
-184 204 -82 91 -186 205 -230 254 -125 137 -133 146 -142 146 -4 0 8 -17 27
-37z"/>
<path d="M4300 6424 c0 -6 8 -22 18 -35 11 -13 32 -47 48 -76 16 -28 137 -231
269 -452 204 -340 265 -431 265 -395 0 4 -30 54 -66 113 -37 58 -166 266 -287
461 -243 394 -247 399 -247 384z"/>
<path d="M4126 6395 c-9 -26 -7 -32 5 -12 6 10 9 21 6 23 -2 3 -7 -2 -11 -11z"/>
<path d="M3853 5915 c-123 -245 -223 -447 -223 -450 0 -26 35 36 120 209 54
111 152 311 218 444 65 133 116 242 113 242 -3 0 -106 -200 -228 -445z"/>
<path d="M4040 6197 c-35 -78 -92 -207 -127 -287 -35 -80 -75 -169 -88 -198
-14 -29 -25 -54 -25 -56 0 -2 -18 -43 -41 -91 -22 -48 -38 -92 -36 -98 3 -7
17 15 31 48 15 33 33 74 41 90 8 17 44 100 81 185 36 85 79 183 95 218 16 35
29 66 29 68 0 3 10 26 21 52 47 103 89 205 86 208 -2 2 -32 -60 -67 -139z"/>
<path d="M4102 6253 c-5 -10 -19 -45 -30 -78 -11 -33 -46 -125 -77 -205 -81
-207 -185 -490 -185 -503 0 -20 16 6 33 53 29 82 248 674 262 713 15 38 13 51
-3 20z"/>
<path d="M1608 5372 c-26 -3 -28 -6 -25 -45 l2 -42 3402 -2 3403 -2 0 45 0 44
-42 0 c-238 3 -6720 4 -6740 2z"/>
<path d="M4303 5158 c-189 -28 -357 -174 -424 -368 -32 -92 -32 -248 0 -339
62 -178 211 -315 387 -357 91 -21 226 -14 312 17 138 51 276 192 323 332 23
70 37 235 22 272 -4 13 -46 15 -269 15 l-264 0 0 -109 0 -109 146 0 c80 0 148
-3 152 -6 3 -3 -3 -21 -12 -39 -90 -167 -301 -221 -458 -117 -162 108 -192
341 -63 487 41 46 105 87 157 100 13 3 52 5 88 6 72 0 139 -24 192 -68 l30
-25 76 77 76 77 -40 34 c-106 93 -284 142 -431 120z"/>
<path d="M6301 5149 c-8 -22 -28 -66 -89 -199 -23 -52 -188 -422 -291 -655
-39 -88 -75 -167 -80 -176 -6 -9 -7 -20 -4 -23 4 -3 55 -6 114 -6 l107 0 22
48 c13 26 29 62 37 80 9 22 20 32 36 33 84 4 315 3 330 -1 11 -4 32 -36 52
-81 l32 -74 103 -3 c57 -1 109 -1 116 2 10 4 -165 411 -338 786 -11 25 -45 99
-75 165 -30 66 -56 122 -58 124 -3 2 -9 -7 -14 -20z m71 -620 l36 -86 -94 -1
c-86 -1 -93 0 -84 16 9 16 49 112 72 171 8 23 9 24 22 5 7 -10 29 -58 48 -105z"/>
<path d="M2421 5150 c-3 -3 -7 -242 -6 -532 l0 -528 322 0 322 0 -3 103 c-2
56 -4 104 -5 107 0 3 -95 4 -211 4 l-210 -2 0 108 0 108 143 0 c78 0 150 1
160 1 15 1 17 13 17 106 l0 105 -160 0 -160 0 0 105 0 105 43 1 c23 0 119 0
213 0 l170 0 0 107 -1 107 -313 0 c-172 0 -317 -2 -321 -5z"/>
<path d="M3159 5150 c-3 -17 -4 -1037 -1 -1047 3 -10 77 -13 323 -13 l318 0
-2 107 -2 107 -212 -1 -213 0 0 426 0 426 -105 0 c-58 0 -105 -2 -106 -5z"/>
<path d="M5010 4624 l0 -534 108 0 108 0 -1 200 c0 110 2 200 5 200 3 0 64
-90 135 -200 l130 -200 132 0 132 0 -68 103 c-37 56 -91 139 -119 184 l-52 83
33 13 c66 28 140 111 166 187 6 19 14 64 17 100 13 147 -51 270 -181 345 -71
42 -119 49 -337 50 l-208 2 0 -533z m423 301 c53 -22 80 -67 80 -132 0 -60
-18 -93 -70 -129 -26 -17 -45 -20 -124 -20 l-94 1 0 143 c-1 104 3 145 12 150
21 12 158 3 196 -13z"/>
<path d="M6885 5149 c-3 -3 -4 -243 -4 -533 l0 -526 167 0 c192 0 261 13 361
65 71 38 150 108 187 167 41 64 75 182 79 272 9 196 -70 369 -215 465 -57 39
-139 74 -200 87 -44 9 -370 12 -375 3z m406 -237 c56 -24 111 -79 141 -140 20
-40 23 -62 23 -152 0 -94 -3 -110 -27 -155 -55 -103 -128 -148 -265 -161 -57
-5 -63 -4 -64 12 -1 11 -2 154 -3 319 -1 292 0 300 19 305 30 9 126 -7 176
-28z"/>
<path d="M7750 4623 l0 -533 320 0 320 0 0 108 0 107 -212 0 -213 0 0 95 c-1
52 1 100 3 107 2 8 49 11 160 10 l157 -1 1 94 c0 52 -2 101 -4 108 -3 9 -44
12 -158 12 -85 0 -155 3 -155 8 -1 4 -2 51 -3 105 l-1 97 45 1 c25 0 120 0
213 0 l167 -1 0 108 0 107 -320 0 -320 0 0 -532z"/>
<path d="M1592 4619 l0 -530 232 3 c227 3 232 4 288 30 103 48 193 155 213
254 7 36 7 129 -1 169 -15 80 -82 172 -169 229 -50 34 -54 39 -45 62 26 68 -5
168 -71 234 -69 69 -110 80 -295 80 l-152 0 0 -531z m303 296 c32 -31 31 -50
0 -81 -19 -19 -34 -24 -58 -22 -32 3 -32 3 -33 58 0 30 1 58 3 63 9 17 65 6
88 -18z m140 -320 c75 -30 105 -133 61 -211 -34 -63 -90 -85 -201 -82 l-90 3
-1 145 c0 80 1 148 3 151 4 9 204 4 228 -6z"/>
<path d="M2509 3745 c-4 -28 -5 -1412 -1 -1422 3 -10 41 -13 143 -13 l139 0 2
389 3 390 75 -72 c42 -40 149 -142 239 -227 90 -85 212 -201 270 -256 166
-160 249 -235 258 -237 4 -1 8 321 8 716 l0 718 -140 -2 -140 -2 -5 -388 -5
-388 -75 70 c-192 181 -348 328 -395 374 -29 28 -114 109 -190 180 -76 72
-148 141 -161 155 -13 14 -25 20 -25 15z"/>
<path d="M1478 3723 c-17 -21 0 -31 117 -68 109 -34 115 -37 116 -63 6 -180 0
-543 -10 -572 -6 -19 -30 -55 -52 -80 -23 -25 -74 -81 -113 -124 -39 -43 -82
-91 -96 -106 -14 -15 -63 -69 -110 -121 -47 -51 -112 -122 -145 -157 -74 -78
-80 -89 -65 -108 9 -10 34 -14 89 -14 l76 0 -36 -35 c-30 -31 -39 -35 -60 -27
-60 23 -136 -4 -165 -60 -18 -35 -21 -103 -5 -121 8 -10 -2 -26 -44 -67 -44
-44 -52 -57 -44 -72 14 -27 25 -23 84 33 46 43 56 49 74 40 24 -14 72 -14 104
-2 61 23 98 104 76 168 -11 35 -11 36 42 89 l53 54 499 2 c449 3 501 5 510 19
12 20 5 30 -115 162 -46 50 -105 116 -133 147 -153 171 -214 239 -253 280 -81
84 -82 87 -82 412 0 265 1 287 18 292 180 52 222 69 222 87 0 23 23 21 -288
23 -189 1 -256 -2 -264 -11z m743 -1279 c83 -80 113 -74 -368 -74 l-428 0 60
58 60 58 318 -2 318 -1 40 -39z"/>
<path d="M4389 3735 c-2 -2 -24 -5 -49 -8 -271 -30 -546 -303 -586 -582 -43
-296 71 -561 309 -724 126 -86 254 -121 422 -116 126 4 201 21 298 70 273 137
435 432 396 723 -4 30 -10 57 -14 60 -8 8 -675 8 -688 0 -16 -9 -17 -278 -2
-279 5 -1 96 -2 200 -3 119 0 190 -5 190 -11 -1 -25 -50 -99 -99 -150 -129
-131 -330 -163 -498 -78 -65 32 -157 126 -189 193 -78 162 -48 357 74 483 137
141 327 175 503 90 28 -14 63 -36 77 -49 14 -13 30 -24 36 -24 11 0 201 188
201 199 -1 12 -126 99 -187 130 -88 44 -202 72 -303 76 -49 2 -90 2 -91 0z"/>
<path d="M0 3021 l0 -711 143 0 144 0 0 253 c1 138 2 266 2 283 l1 32 210 0
210 0 0 -284 0 -284 143 0 142 0 -1 703 c-1 386 -2 706 -3 710 0 4 -64 7 -141
6 l-140 -1 0 -282 0 -283 -210 1 c-140 0 -210 3 -211 10 -1 6 -2 133 -3 281
l-1 270 -142 3 -143 3 0 -710z"/>
<path d="M6646 3708 c3 -13 21 -55 39 -94 31 -68 233 -524 470 -1064 62 -140
116 -254 121 -254 5 1 59 116 121 255 62 140 123 279 137 309 14 30 59 134
101 230 43 96 88 200 102 230 14 30 59 131 100 224 41 94 76 173 79 177 2 4
-65 8 -150 8 l-153 1 -101 -232 c-173 -398 -231 -530 -236 -536 -3 -3 -9 4
-12 14 -7 19 -266 617 -306 706 l-21 46 -149 1 -150 2 8 -23z"/>
<path d="M8020 3020 l0 -710 428 0 428 0 -2 138 c-1 75 -3 139 -3 142 -1 3
-127 5 -280 5 -244 -1 -280 1 -283 15 -2 8 -3 71 -3 140 l1 125 190 2 c104 1
200 2 214 2 l25 1 -2 137 c-1 75 -7 139 -12 142 -5 3 -100 6 -210 5 -138 0
-201 3 -202 10 -1 6 -2 68 -3 139 -1 120 0 127 19 128 11 1 135 2 275 3 140 2
260 3 265 4 6 1 10 55 10 140 l0 137 -428 2 -427 3 0 -710z"/>
<path d="M9006 3028 c1 -387 2 -706 3 -710 1 -5 64 -8 141 -8 l140 0 2 272 3
272 131 -199 c72 -110 152 -233 178 -272 l46 -73 175 0 c165 0 175 1 165 18
-5 9 -75 116 -155 237 -79 121 -145 225 -145 231 0 6 21 19 48 29 96 37 207
186 228 305 12 72 6 214 -12 267 -50 151 -188 274 -354 317 -40 10 -128 14
-325 15 l-270 2 1 -703z m514 408 c82 -19 126 -57 149 -129 32 -98 -29 -226
-121 -253 -25 -7 -207 -11 -250 -5 -13 2 -10 389 2 393 20 6 185 1 220 -6z"/>
<path d="M5865 3664 c-38 -14 -84 -31 -102 -37 -18 -7 -37 -21 -43 -32 -6 -11
-19 -21 -28 -22 -37 -3 -108 -26 -118 -39 -6 -8 -20 -14 -31 -14 -23 0 -53
-29 -53 -52 0 -22 -11 -29 -27 -17 -10 9 -18 8 -31 -5 -10 -9 -22 -13 -25 -9
-4 3 -7 -2 -7 -13 0 -11 9 -27 20 -37 23 -19 26 -54 7 -100 -7 -18 -11 -39 -9
-49 4 -19 94 -60 115 -52 8 3 27 -6 43 -19 66 -55 104 -55 124 -1 22 57 12
106 -35 179 -47 73 -61 103 -51 112 12 12 36 -21 72 -95 27 -57 37 -92 39
-135 4 -100 57 -127 122 -62 35 35 36 35 50 15 47 -67 142 -65 240 6 21 15 22
14 33 -25 13 -48 65 -107 105 -117 16 -4 47 -2 69 4 43 11 58 5 62 -25 9 -62
18 -86 41 -113 32 -38 61 -53 143 -74 35 -9 74 -26 86 -37 12 -11 25 -19 30
-17 5 1 20 -5 34 -14 38 -24 105 -31 120 -13 7 8 19 15 27 15 19 0 12 35 -7
36 -8 1 -19 2 -25 4 -5 1 -20 1 -32 1 -35 -3 -39 20 -8 45 32 25 40 55 25 84
-10 19 -14 18 -87 -21 -42 -22 -85 -42 -95 -44 -33 -7 -19 14 24 36 47 24 127
82 172 124 l29 27 -27 23 c-14 12 -26 30 -26 40 0 19 -53 111 -112 195 -22 30
-57 83 -78 117 -38 61 -70 87 -161 135 -38 19 -53 21 -141 18 -40 -2 -108 17
-108 29 0 5 -28 21 -62 37 -93 41 -207 45 -303 8z m9 -149 c3 -9 12 -12 23 -9
17 5 17 5 1 -8 -20 -17 -27 -93 -10 -110 15 -15 16 -28 2 -28 -5 0 -10 8 -10
18 -1 12 -5 9 -16 -10 -16 -31 -30 -38 -19 -10 4 9 6 52 6 95 -1 71 9 98 23
62z m62 -48 c-3 -29 -6 -61 -7 -72 -1 -11 -5 -2 -8 20 -8 52 -2 117 10 109 6
-3 8 -29 5 -57z m-112 -15 c-2 -26 -6 -56 -8 -67 -3 -11 -5 -35 -5 -53 -1 -20
-5 -31 -11 -27 -10 6 -12 180 -3 197 2 4 10 5 18 2 10 -4 12 -18 9 -52z m194
25 c5 -24 -21 -21 -36 3 -11 18 -10 20 10 16 13 -1 24 -10 26 -19z m57 3 c3
-5 -1 -10 -9 -10 -9 0 -16 5 -16 10 0 6 4 10 9 10 6 0 13 -4 16 -10z m-315 -6
c0 -3 -7 -12 -15 -20 -16 -17 -18 -14 -9 10 6 15 24 23 24 10z m360 -14 c0 -5
-4 -10 -10 -10 -5 0 -10 5 -10 10 0 6 5 10 10 10 6 0 10 -4 10 -10z m75 -10
c12 0 30 -10 41 -22 l19 -21 -34 7 c-44 8 -84 34 -75 47 4 7 10 7 17 0 6 -6
21 -11 32 -11z m-592 -97 c6 -9 3 -11 -7 -7 -19 7 -46 48 -46 70 0 15 20 -9
53 -63z m747 37 c0 -5 -7 -7 -15 -4 -8 4 -15 8 -15 10 0 2 7 4 15 4 8 0 15 -4
15 -10z m40 -14 c0 -8 -4 -18 -10 -21 -5 -3 -10 3 -10 14 0 12 5 21 10 21 6 0
10 -6 10 -14z m-890 -12 c0 -8 -4 -12 -10 -9 -5 3 -10 10 -10 16 0 5 5 9 10 9
6 0 10 -7 10 -16z m960 -6 c0 -12 -18 -18 -34 -12 -25 9 -19 22 9 20 14 0 25
-4 25 -8z m30 -28 c-6 -11 -15 -20 -20 -20 -14 0 -12 6 6 24 21 22 27 20 14
-4z m-920 -15 c0 -24 -36 -72 -47 -62 -5 5 34 87 42 87 3 0 5 -11 5 -25z m984
-7 c-5 -7 -1 -9 9 -5 22 8 23 -16 2 -33 -13 -11 -18 -10 -30 6 -8 11 -14 14
-15 7 0 -18 -20 -16 -20 1 0 15 41 46 53 39 4 -2 4 -9 1 -15z m-28 -75 c-10
-10 -19 5 -10 18 6 11 8 11 12 0 2 -7 1 -15 -2 -18z m75 -6 c-16 -16 -26 0
-10 19 9 11 15 12 17 4 2 -6 -1 -17 -7 -23z m-95 -34 c-10 -10 -19 5 -10 18 6
11 8 11 12 0 2 -7 1 -15 -2 -18z m154 8 c0 -6 -4 -13 -10 -16 -5 -3 -10 1 -10
9 0 9 5 16 10 16 6 0 10 -4 10 -9z m16 -46 c-11 -8 -25 -15 -30 -15 -6 0 -26
-14 -43 -31 -35 -32 -44 -28 -15 8 19 25 69 53 92 53 11 -1 10 -4 -4 -15z m69
-25 c3 -5 -1 -10 -10 -10 -9 0 -13 5 -10 10 3 6 8 10 10 10 2 0 7 -4 10 -10z
m-10 -80 c5 -8 -81 -55 -180 -99 -5 -2 -4 3 3 11 7 9 36 26 65 38 29 13 63 31
76 41 28 22 28 22 36 9z m-190 -31 c-4 -8 -20 -25 -37 -38 -26 -21 -29 -22
-20 -5 24 44 73 81 57 43z"/>
<path d="M5360 3401 c0 -19 17 -38 25 -29 7 7 -7 48 -16 48 -5 0 -9 -9 -9 -19z"/>
<path d="M5315 3275 c-16 -7 -38 -19 -48 -27 -17 -12 -17 -16 -4 -27 20 -16
59 -22 75 -12 8 5 12 22 10 44 -3 35 -3 35 -33 22z"/>
<path d="M5303 3135 c-59 -11 -104 -42 -83 -55 8 -5 23 -2 37 7 13 9 26 13 29
10 3 -3 -7 -14 -23 -24 -46 -29 -75 -76 -34 -53 32 17 36 11 11 -16 -20 -21
-22 -27 -10 -34 10 -6 21 -4 32 7 10 9 21 13 25 10 4 -4 -2 -13 -12 -21 -10
-7 -15 -18 -11 -25 6 -8 2 -11 -10 -9 -13 2 -19 -3 -19 -17 0 -25 37 -32 55
-10 14 16 30 20 30 6 0 -4 -13 -22 -30 -39 -34 -36 -37 -50 -15 -78 15 -19 15
-19 31 1 16 19 16 19 12 -7 -5 -26 2 -33 25 -29 5 1 6 -7 2 -18 -4 -13 1 -24
16 -35 13 -9 24 -15 25 -13 1 1 5 22 9 46 3 24 15 64 25 90 l19 46 -4 -55 c-3
-30 -7 -76 -11 -102 -5 -42 -4 -47 18 -54 13 -4 25 -6 27 -6 10 3 11 52 2 52
-15 0 -7 61 13 102 16 33 62 75 71 66 2 -2 -9 -18 -25 -34 -15 -17 -33 -48
-39 -69 -11 -42 -6 -59 10 -35 8 11 9 -3 6 -48 -6 -76 6 -104 56 -134 21 -13
45 -29 52 -36 8 -7 31 -20 52 -29 21 -8 50 -24 66 -35 l27 -20 11 31 c15 44
30 39 17 -6 -9 -33 -8 -38 13 -54 13 -9 41 -22 63 -29 23 -7 46 -16 51 -20 6
-4 25 -11 43 -15 25 -5 38 -2 54 12 19 16 21 16 15 1 -9 -24 12 -36 68 -38 80
-3 84 -2 100 33 l15 32 -4 -38 c-4 -32 -2 -39 17 -46 16 -7 28 -4 44 11 12 12
22 23 21 27 0 3 0 20 1 36 1 20 4 26 10 17 4 -7 5 -31 1 -53 -6 -33 -5 -39 10
-39 10 0 25 10 34 23 l16 22 -6 -27 c-5 -22 -2 -28 10 -28 16 0 40 45 32 59
-3 4 0 13 5 21 7 11 9 1 6 -33 -5 -54 1 -61 44 -52 25 6 35 17 55 61 13 30 24
62 24 72 0 9 5 24 11 32 8 11 9 5 5 -25 -9 -62 -11 -68 -23 -91 -7 -12 -10
-24 -7 -27 8 -8 37 4 50 21 6 8 16 12 22 8 14 -9 52 11 52 27 0 7 9 23 20 37
11 14 20 40 20 58 0 17 5 32 10 32 13 0 7 -58 -9 -88 -20 -38 -7 -35 38 8 34
33 42 48 41 73 -3 47 -1 57 9 57 6 0 8 -9 6 -20 -4 -23 3 -50 14 -50 11 0 32
66 25 83 -3 8 -1 18 4 21 5 3 12 -3 15 -14 7 -26 27 -26 27 0 0 18 -54 88 -90
117 -70 56 -293 123 -345 103 -16 -6 -34 -6 -52 1 -33 13 -146 14 -165 2 -7
-4 -56 -8 -108 -8 -52 0 -102 -4 -110 -8 -12 -6 -16 -1 -18 24 -3 37 -23 79
-54 112 -30 31 -54 43 -104 51 -36 6 -85 39 -95 63 -16 36 -202 132 -233 120
-9 -3 -18 -2 -21 3 -7 12 -92 10 -162 -5z m77 -325 c0 -5 -5 -10 -11 -10 -5 0
-7 5 -4 10 3 6 8 10 11 10 2 0 4 -4 4 -10z m199 -161 c-13 -29 -25 -47 -27
-40 -5 14 37 105 45 98 2 -3 -6 -29 -18 -58z m1151 -94 c0 -8 -4 -15 -10 -15
-5 0 -7 7 -4 15 4 8 8 15 10 15 2 0 4 -7 4 -15z m-160 -15 c0 -5 -4 -10 -10
-10 -5 0 -10 5 -10 10 0 6 5 10 10 10 6 0 10 -4 10 -10z"/>
<path d="M6896 2745 c-4 -12 -1 -16 11 -13 18 3 21 20 5 26 -5 1 -12 -4 -16
-13z"/>
<path d="M10 2172 c-5 -2 -10 -23 -10 -46 l0 -43 435 0 436 0 -3 46 -3 45
-422 1 c-233 0 -427 -1 -433 -3z"/>
<path d="M1450 2170 c-9 -6 -13 -25 -11 -61 l1 -26 4280 0 4280 0 0 46 0 46
-4271 0 c-2349 0 -4275 -2 -4279 -5z"/>
</g>
</svg>
